<?xml version="1.0" encoding="UTF-8"?>
<svg width="667px" height="394px" viewBox="0 0 667 394" version="1.1" xmlns="http://www.w3.org/2000/svg" xmlns:xlink="http://www.w3.org/1999/xlink">
    <!-- Generator: Sketch 48.2 (47327) - http://www.bohemiancoding.com/sketch -->
    <title>Slice 9</title>
    <desc>Created with Sketch.</desc>
    <defs></defs>
    <g id="WRIT-340-UI-Mockups" stroke="none" stroke-width="1" fill="none" fill-rule="evenodd">
        <g id="elephant" transform="translate(84.000000, 11.000000)" fill="#FFFFFF" fill-rule="nonzero">
            <path d="M105.163652,99.2598311 C103.181706,98.798054 103.095587,98.6000528 103.512063,95.4627141 C103.935965,92.2694402 103.607751,91.5864218 94.2003259,76.0849457 C88.8372061,67.2476363 84.3204318,59.8814528 84.1630447,59.7156459 C84.0056422,59.5498399 82.3851399,62.5416993 80.5619097,66.364225 C78.7386795,70.1867498 75.5324408,76.286667 73.4369356,79.9195989 C71.3414243,83.5525308 69.626919,87.2800777 69.626919,88.2030467 C69.626919,89.1260072 70.6618158,91.3636422 71.9266903,93.1755475 L74.2264593,96.4699329 L70.9953085,96.4632451 C67.594255,96.4565572 58.3496231,95.0548075 57.7845024,94.4594663 C57.6024336,94.2676681 58.3812219,91.3740836 59.5151434,88.0292888 C62.373219,79.5986338 64.8828404,70.0198302 65.5277283,65.0802652 L66.0707346,60.921064 L62.0742764,61.5955287 C59.8762246,61.9664844 55.3855436,62.2864404 52.0949851,62.3065423 L46.1121513,62.3430912 L41.765395,66.8496519 L37.4186379,71.3562133 L37.7073896,79.5737133 L37.9961413,87.7912109 L40.7722226,90.4699492 C42.2990682,91.9436014 43.5483046,93.4987697 43.5483046,93.9262216 C43.5483046,94.9585447 39.8598902,95.6870653 34.7002032,95.6738736 C27.1103803,95.6544789 27.3235241,95.905456 27.0355765,86.6479285 C26.8969239,82.1902391 26.5474706,78.2952535 26.2590137,77.992404 C25.1923538,76.8725215 19.8151141,82.3768877 18.5401862,85.8937099 C17.8400623,87.8249676 17.0277975,89.4050815 16.735153,89.4050815 C14.6132228,89.4050815 5.87495836,79.854376 7.13952798,78.9173041 C10.2598481,76.6050857 20.4352489,67.9886214 21.4375102,66.8098702 C22.7594385,65.2551625 22.7346347,65.0037934 20.5505223,57.8209229 C19.3147015,53.7566912 17.9138838,48.0739968 17.4375923,45.1927137 C16.9613015,42.3114298 16.2951041,39.9540169 15.9571533,39.9540169 C15.1799563,39.9540169 11.2719532,50.5851585 9.71183539,56.9434763 C9.06097423,59.5960862 8.52845139,63.5574041 8.52845139,65.7464069 C8.52845139,68.8779715 8.22121702,69.8996268 7.08722866,70.5389654 C4.87512537,71.7861388 2.18782283,71.5078972 0.795855035,69.8875611 C-0.398191639,68.497617 -0.354703056,68.376881 1.65603302,67.4994803 C4.18727278,66.3949538 6.28940936,62.9339892 6.30292942,59.8488154 C6.3303228,53.5983346 9.37595585,42.4109128 13.4663457,33.535701 C17.2870961,25.2455437 18.1532123,23.9619476 22.2444161,20.526476 C36.4585656,8.59055125 41.8169002,7.07271934 52.9920726,11.81672 C60.1035205,14.8356192 63.7871567,15.2798165 72.0753149,14.1179018 C81.1115436,12.8511172 82.6140017,12.1598761 84.1547276,8.56049202 C84.8732989,6.88179804 86.5388348,4.26894857 87.8559057,2.75416046 L90.2505954,0 L93.5368947,1.08808882 C104.654076,4.7689741 119.792515,9.6350161 121.47156,10.9457163 C122.552742,11.789708 125.593484,18.2293955 129.794009,24.5965671 C136.651263,34.9908296 137.431317,36.5251378 137.431317,39.6185501 C137.431317,43.3637604 137.741514,43.5950845 143.392146,44.0636455 L146,44.2798952 L143.392146,45.1862098 C141.957822,45.684683 139.905799,46.2960657 138.832097,46.5448383 C137.237144,46.9143803 136.792568,47.5725376 136.402633,50.1414444 C136.140127,51.8708061 135.049499,56.5023763 133.978999,60.4338222 C132.401802,66.2261692 132.096689,68.72098 132.370308,73.5876362 C132.680474,79.1045212 133.108048,80.5900451 136.563576,88.1565245 C136.742866,88.5490994 136.298359,88.6313178 135.575786,88.339219 C134.853214,88.0471202 133.836572,88.1800991 133.316574,88.6347202 C132.592726,89.26758 131.743163,88.1208701 129.691962,83.7424063 C125.951134,75.757251 125.102484,70.3105497 126.293716,61.9322687 C127.463437,53.7052861 127.474304,45.8191858 126.317907,44.3513679 C125.227732,42.9675557 115.093687,40.0725258 110.543007,39.8448934 C107.654246,39.7003923 106.647733,40.0784019 104.037629,42.2880818 C102.3393,43.7258581 100.774537,45.4838185 100.560374,46.19466 C100.099863,47.7231681 101.971283,55.4971714 106.593399,71.2562639 C110.571867,84.820867 112.540873,89.6244753 116.181312,94.6471097 C118.586907,97.9660561 118.733405,98.4234109 117.537089,98.8797792 C116.013412,99.4610174 109.110634,100.225652 107.992504,99.9370478 C107.586688,99.8327095 106.313698,99.5277785 105.163652,99.2598311 Z" id="path12"></path>
        </g>
        <g id="elephant" transform="translate(260.000000, 11.000000)" fill="#FFFFFF" fill-rule="nonzero">
            <path d="M105.163652,99.2598311 C103.181706,98.798054 103.095587,98.6000528 103.512063,95.4627141 C103.935965,92.2694402 103.607751,91.5864218 94.2003259,76.0849457 C88.8372061,67.2476363 84.3204318,59.8814528 84.1630447,59.7156459 C84.0056422,59.5498399 82.3851399,62.5416993 80.5619097,66.364225 C78.7386795,70.1867498 75.5324408,76.286667 73.4369356,79.9195989 C71.3414243,83.5525308 69.626919,87.2800777 69.626919,88.2030467 C69.626919,89.1260072 70.6618158,91.3636422 71.9266903,93.1755475 L74.2264593,96.4699329 L70.9953085,96.4632451 C67.594255,96.4565572 58.3496231,95.0548075 57.7845024,94.4594663 C57.6024336,94.2676681 58.3812219,91.3740836 59.5151434,88.0292888 C62.373219,79.5986338 64.8828404,70.0198302 65.5277283,65.0802652 L66.0707346,60.921064 L62.0742764,61.5955287 C59.8762246,61.9664844 55.3855436,62.2864404 52.0949851,62.3065423 L46.1121513,62.3430912 L41.765395,66.8496519 L37.4186379,71.3562133 L37.7073896,79.5737133 L37.9961413,87.7912109 L40.7722226,90.4699492 C42.2990682,91.9436014 43.5483046,93.4987697 43.5483046,93.9262216 C43.5483046,94.9585447 39.8598902,95.6870653 34.7002032,95.6738736 C27.1103803,95.6544789 27.3235241,95.905456 27.0355765,86.6479285 C26.8969239,82.1902391 26.5474706,78.2952535 26.2590137,77.992404 C25.1923538,76.8725215 19.8151141,82.3768877 18.5401862,85.8937099 C17.8400623,87.8249676 17.0277975,89.4050815 16.735153,89.4050815 C14.6132228,89.4050815 5.87495836,79.854376 7.13952798,78.9173041 C10.2598481,76.6050857 20.4352489,67.9886214 21.4375102,66.8098702 C22.7594385,65.2551625 22.7346347,65.0037934 20.5505223,57.8209229 C19.3147015,53.7566912 17.9138838,48.0739968 17.4375923,45.1927137 C16.9613015,42.3114298 16.2951041,39.9540169 15.9571533,39.9540169 C15.1799563,39.9540169 11.2719532,50.5851585 9.71183539,56.9434763 C9.06097423,59.5960862 8.52845139,63.5574041 8.52845139,65.7464069 C8.52845139,68.8779715 8.22121702,69.8996268 7.08722866,70.5389654 C4.87512537,71.7861388 2.18782283,71.5078972 0.795855035,69.8875611 C-0.398191639,68.497617 -0.354703056,68.376881 1.65603302,67.4994803 C4.18727278,66.3949538 6.28940936,62.9339892 6.30292942,59.8488154 C6.3303228,53.5983346 9.37595585,42.4109128 13.4663457,33.535701 C17.2870961,25.2455437 18.1532123,23.9619476 22.2444161,20.526476 C36.4585656,8.59055125 41.8169002,7.07271934 52.9920726,11.81672 C60.1035205,14.8356192 63.7871567,15.2798165 72.0753149,14.1179018 C81.1115436,12.8511172 82.6140017,12.1598761 84.1547276,8.56049202 C84.8732989,6.88179804 86.5388348,4.26894857 87.8559057,2.75416046 L90.2505954,0 L93.5368947,1.08808882 C104.654076,4.7689741 119.792515,9.6350161 121.47156,10.9457163 C122.552742,11.789708 125.593484,18.2293955 129.794009,24.5965671 C136.651263,34.9908296 137.431317,36.5251378 137.431317,39.6185501 C137.431317,43.3637604 137.741514,43.5950845 143.392146,44.0636455 L146,44.2798952 L143.392146,45.1862098 C141.957822,45.684683 139.905799,46.2960657 138.832097,46.5448383 C137.237144,46.9143803 136.792568,47.5725376 136.402633,50.1414444 C136.140127,51.8708061 135.049499,56.5023763 133.978999,60.4338222 C132.401802,66.2261692 132.096689,68.72098 132.370308,73.5876362 C132.680474,79.1045212 133.108048,80.5900451 136.563576,88.1565245 C136.742866,88.5490994 136.298359,88.6313178 135.575786,88.339219 C134.853214,88.0471202 133.836572,88.1800991 133.316574,88.6347202 C132.592726,89.26758 131.743163,88.1208701 129.691962,83.7424063 C125.951134,75.757251 125.102484,70.3105497 126.293716,61.9322687 C127.463437,53.7052861 127.474304,45.8191858 126.317907,44.3513679 C125.227732,42.9675557 115.093687,40.0725258 110.543007,39.8448934 C107.654246,39.7003923 106.647733,40.0784019 104.037629,42.2880818 C102.3393,43.7258581 100.774537,45.4838185 100.560374,46.19466 C100.099863,47.7231681 101.971283,55.4971714 106.593399,71.2562639 C110.571867,84.820867 112.540873,89.6244753 116.181312,94.6471097 C118.586907,97.9660561 118.733405,98.4234109 117.537089,98.8797792 C116.013412,99.4610174 109.110634,100.225652 107.992504,99.9370478 C107.586688,99.8327095 106.313698,99.5277785 105.163652,99.2598311 Z" id="path12"></path>
        </g>
        <g id="elephant" transform="translate(435.000000, 11.000000)" fill="#FFFFFF" fill-rule="nonzero">
            <path d="M105.163652,99.2598311 C103.181706,98.798054 103.095587,98.6000528 103.512063,95.4627141 C103.935965,92.2694402 103.607751,91.5864218 94.2003259,76.0849457 C88.8372061,67.2476363 84.3204318,59.8814528 84.1630447,59.7156459 C84.0056422,59.5498399 82.3851399,62.5416993 80.5619097,66.364225 C78.7386795,70.1867498 75.5324408,76.286667 73.4369356,79.9195989 C71.3414243,83.5525308 69.626919,87.2800777 69.626919,88.2030467 C69.626919,89.1260072 70.6618158,91.3636422 71.9266903,93.1755475 L74.2264593,96.4699329 L70.9953085,96.4632451 C67.594255,96.4565572 58.3496231,95.0548075 57.7845024,94.4594663 C57.6024336,94.2676681 58.3812219,91.3740836 59.5151434,88.0292888 C62.373219,79.5986338 64.8828404,70.0198302 65.5277283,65.0802652 L66.0707346,60.921064 L62.0742764,61.5955287 C59.8762246,61.9664844 55.3855436,62.2864404 52.0949851,62.3065423 L46.1121513,62.3430912 L41.765395,66.8496519 L37.4186379,71.3562133 L37.7073896,79.5737133 L37.9961413,87.7912109 L40.7722226,90.4699492 C42.2990682,91.9436014 43.5483046,93.4987697 43.5483046,93.9262216 C43.5483046,94.9585447 39.8598902,95.6870653 34.7002032,95.6738736 C27.1103803,95.6544789 27.3235241,95.905456 27.0355765,86.6479285 C26.8969239,82.1902391 26.5474706,78.2952535 26.2590137,77.992404 C25.1923538,76.8725215 19.8151141,82.3768877 18.5401862,85.8937099 C17.8400623,87.8249676 17.0277975,89.4050815 16.735153,89.4050815 C14.6132228,89.4050815 5.87495836,79.854376 7.13952798,78.9173041 C10.2598481,76.6050857 20.4352489,67.9886214 21.4375102,66.8098702 C22.7594385,65.2551625 22.7346347,65.0037934 20.5505223,57.8209229 C19.3147015,53.7566912 17.9138838,48.0739968 17.4375923,45.1927137 C16.9613015,42.3114298 16.2951041,39.9540169 15.9571533,39.9540169 C15.1799563,39.9540169 11.2719532,50.5851585 9.71183539,56.9434763 C9.06097423,59.5960862 8.52845139,63.5574041 8.52845139,65.7464069 C8.52845139,68.8779715 8.22121702,69.8996268 7.08722866,70.5389654 C4.87512537,71.7861388 2.18782283,71.5078972 0.795855035,69.8875611 C-0.398191639,68.497617 -0.354703056,68.376881 1.65603302,67.4994803 C4.18727278,66.3949538 6.28940936,62.9339892 6.30292942,59.8488154 C6.3303228,53.5983346 9.37595585,42.4109128 13.4663457,33.535701 C17.2870961,25.2455437 18.1532123,23.9619476 22.2444161,20.526476 C36.4585656,8.59055125 41.8169002,7.07271934 52.9920726,11.81672 C60.1035205,14.8356192 63.7871567,15.2798165 72.0753149,14.1179018 C81.1115436,12.8511172 82.6140017,12.1598761 84.1547276,8.56049202 C84.8732989,6.88179804 86.5388348,4.26894857 87.8559057,2.75416046 L90.2505954,0 L93.5368947,1.08808882 C104.654076,4.7689741 119.792515,9.6350161 121.47156,10.9457163 C122.552742,11.789708 125.593484,18.2293955 129.794009,24.5965671 C136.651263,34.9908296 137.431317,36.5251378 137.431317,39.6185501 C137.431317,43.3637604 137.741514,43.5950845 143.392146,44.0636455 L146,44.2798952 L143.392146,45.1862098 C141.957822,45.684683 139.905799,46.2960657 138.832097,46.5448383 C137.237144,46.9143803 136.792568,47.5725376 136.402633,50.1414444 C136.140127,51.8708061 135.049499,56.5023763 133.978999,60.4338222 C132.401802,66.2261692 132.096689,68.72098 132.370308,73.5876362 C132.680474,79.1045212 133.108048,80.5900451 136.563576,88.1565245 C136.742866,88.5490994 136.298359,88.6313178 135.575786,88.339219 C134.853214,88.0471202 133.836572,88.1800991 133.316574,88.6347202 C132.592726,89.26758 131.743163,88.1208701 129.691962,83.7424063 C125.951134,75.757251 125.102484,70.3105497 126.293716,61.9322687 C127.463437,53.7052861 127.474304,45.8191858 126.317907,44.3513679 C125.227732,42.9675557 115.093687,40.0725258 110.543007,39.8448934 C107.654246,39.7003923 106.647733,40.0784019 104.037629,42.2880818 C102.3393,43.7258581 100.774537,45.4838185 100.560374,46.19466 C100.099863,47.7231681 101.971283,55.4971714 106.593399,71.2562639 C110.571867,84.820867 112.540873,89.6244753 116.181312,94.6471097 C118.586907,97.9660561 118.733405,98.4234109 117.537089,98.8797792 C116.013412,99.4610174 109.110634,100.225652 107.992504,99.9370478 C107.586688,99.8327095 106.313698,99.5277785 105.163652,99.2598311 Z" id="path12"></path>
        </g>
        <text id="3-Elephants" font-family="AvenirNext-Bold, Avenir Next" font-size="100" font-weight="bold" fill="#FFFFFF">
            <tspan x="48" y="205">3 Elephants</tspan>
        </text>
        <text id="a-greener-way-to-sho" font-family="AvenirNext-DemiBoldItalic, Avenir Next" font-size="48" font-style="italic" font-weight="500" fill="#FFFFFF">
            <tspan x="14" y="365">a greener way to shop online</tspan>
        </text>
    </g>
</svg>